# xmcd
#
# Track frame offsets:
#	150
#	15450
#	26852
#	39400
#	59890
#	73020
#	92754
#	107745
#	119330
#	130157
#	140762
#	153380
#
# Disc length: 2234
#
# Revision: 1
# Processed by: cddbd v1.5.1PL0 Copyright (c) Steve Scherf et al.
# Submitted via: dBpowerAMP V4.0
# Normalized: r0:TDELIM( - )
#
DISCID=ac08b80c
DTITLE=Various Artist - The Great Country Romancin'
DYEAR=1995
DGENRE=Country
TTITLE0=Gene Watson - Love In The Hot Afternoon
TTITLE1=Moe Bandy - It's A Cheatin' Situation
TTITLE2=Ronnie McDowell - In A New York Minute
TTITLE3=Garry Morris - Momma You Can't Give Me No Whippin'
TTITLE4=Mel Tillis - In The Middle Of The Night
TTITLE5=Bellamy Brothers - If I Said You Had A Beautiful Body
TTITLE6=Gus Hardin - What We Gonna Do
TTITLE7=Gene Watson - You're Out Doin' What I'm Here Doing Without
TTITLE8=David Frizzell - It'll Be Love By Morning
TTITLE9=Stella Parton - The Danger Of A Stranger
TTITLE10=Bobby Borchers - Cheap Perfume And Candlelight
TTITLE11=Razzy Bailey - Rockin' In The Parking Lot
EXTD=
EXTT0=
EXTT1=
EXTT2=
EXTT3=
EXTT4=
EXTT5=
EXTT6=
EXTT7=
EXTT8=
EXTT9=
EXTT10=
EXTT11=
PLAYORDER=
